<?xml version="1.0" encoding="utf-8"?>
<!-- Generator: Adobe Illustrator 17.0.0, SVG Export Plug-In . SVG Version: 6.00 Build 0)  -->
<!DOCTYPE svg PUBLIC "-//W3C//DTD SVG 1.1//EN" "http://www.w3.org/Graphics/SVG/1.1/DTD/svg11.dtd">
<svg version="1.1" id="Layer_1" xmlns="http://www.w3.org/2000/svg" xmlns:xlink="http://www.w3.org/1999/xlink" x="0px" y="0px"
	 width="500px" height="500px" viewBox="0 0 500 500" enable-background="new 0 0 500 500" xml:space="preserve">
<path fill="none" stroke="#00826A" stroke-width="8" stroke-miterlimit="10" d="M294.612,64.478V30.862
	c0,0,0.7-29.881-31.515-29.881H94.318c0,0-25.445-1.868-27.079,30.348v98.746"/>
<line fill="none" stroke="#00826A" stroke-width="8" stroke-miterlimit="10" x1="165.985" y1="40.667" x2="225.28" y2="40.667"/>
<line fill="none" stroke="#00826A" stroke-width="8" stroke-miterlimit="10" x1="96.419" y1="72.181" x2="266.832" y2="72.181"/>
<line fill="none" stroke="#00826A" stroke-width="8" stroke-miterlimit="10" x1="111.126" y1="339.707" x2="266.832" y2="339.707"/>
<circle fill="none" stroke="#00826A" stroke-width="8" stroke-miterlimit="10" cx="146.376" cy="40.667" r="5.369"/>
<circle fill="none" stroke="#00826A" stroke-width="8" stroke-miterlimit="10" cx="181.392" cy="372.622" r="12.372"/>
<circle fill="none" stroke="#00826A" stroke-width="8" stroke-miterlimit="10" cx="409.699" cy="439.854" r="12.372"/>
<path fill="none" stroke="#00826A" stroke-width="8" stroke-miterlimit="10" d="M67.239,373.323c0,0-7.003,44.121,43.771,38.518
	h154.773c0,0,31.865-0.7,28.363-40.619V215.048"/>
<path fill="none" stroke="#00826A" stroke-width="8" stroke-miterlimit="10" d="M304.417,204.077c0,0-9.338-16.808-4.669-33.149
	c0,0-39.218-43.887-1.868-84.506c0,0,24.278-14.94,27.546,12.606c0,0,5.136,15.874,20.076,36.884c0,0,31.281,42.953,32.682,82.172
	c0,0,6.07,41.086,9.338,63.963c0,0,2.334,17.742,19.609,23.344"/>
<path fill="none" stroke="#00826A" stroke-width="8" stroke-miterlimit="10" d="M250.725,424.914c0,0,38.285,18.209,69.099-1.401
	c0,0,7.003-7.003,16.808-0.467l26.612,10.271"/>
<path fill="none" stroke="#00826A" stroke-width="8" stroke-miterlimit="10" d="M444.386,479.978
	c-5.047,14.625-20.994,22.389-35.619,17.342l-34.866-12.032c-14.625-5.047-22.389-20.994-17.342-35.619l53.003-153.588
	c5.047-14.625,20.994-22.389,35.619-17.342l34.866,12.032c14.625,5.047,22.389,20.994,17.342,35.619L444.386,479.978z"/>
<path fill="none" stroke="#00826A" stroke-width="8" stroke-linejoin="round" stroke-miterlimit="10" d="M36.891,192.871
	c-0.447,0.224-3.021-13.016-3.057-13.822c-0.385-8.801,2.386-18.913,9.591-24.501c8.692-6.742,19.61-7.193,29.997-5.423
	c6.099,1.039,12.263,2.494,17.677,5.593c6.076,3.478,9.96,9.061,13.123,15.167c3.522,6.799,4.222,14.253,1.011,21.35
	c-1.113,2.461-2.663,4.682-4.445,6.704c-0.653,0.74-6.283,6.951-6.936,6.605c0.017,0.009,38.744,20.55,7.003,54.159
	c0,0,32.682,26.612-5.602,53.692c-0.159,0.112,1.234,3.543,1.299,3.739c1.057,3.19,1.829,6.468,2.138,9.819
	c1.202,13.046-3.091,27.221-16.695,31.367c-7.097,2.163-14.071,2.081-21.341,0.867c-8.875-1.482-18.704-3.315-25.928-9.038
	c-2.369-1.877-4.124-4.592-5.938-6.977c-5.256-6.909-7.085-14.496-4.32-22.943c0.98-2.994,2.526-5.75,4.364-8.298
	c0.612-0.849,7.239-9.076,7.594-8.808c-0.002-0.001-36.416-27.547-6.07-52.758C30.355,249.365-3.261,212.948,36.891,192.871z"/>
<line fill="none" stroke="#00826A" stroke-width="8" stroke-miterlimit="10" x1="36.891" y1="192.871" x2="93.851" y2="204.544"/>
<line fill="none" stroke="#00826A" stroke-width="8" stroke-miterlimit="10" x1="30.355" y1="249.365" x2="100.855" y2="258.702"/>
<line fill="none" stroke="#00826A" stroke-width="8" stroke-miterlimit="10" x1="36.424" y1="302.123" x2="95.252" y2="312.394"/>
</svg>
