<?xml version="1.0" encoding="utf-8"?>
<!-- Generator: Adobe Illustrator 17.0.0, SVG Export Plug-In . SVG Version: 6.00 Build 0)  -->
<!DOCTYPE svg PUBLIC "-//W3C//DTD SVG 1.1//EN" "http://www.w3.org/Graphics/SVG/1.1/DTD/svg11.dtd">
<svg version="1.1" id="Layer_1" xmlns="http://www.w3.org/2000/svg" xmlns:xlink="http://www.w3.org/1999/xlink" x="0px" y="0px"
	 width="500px" height="500px" viewBox="0 0 510 510" enable-background="new 0 0 500 500" xml:space="preserve">
<path fill="none" stroke="#00826A" stroke-width="8" stroke-miterlimit="10" d="M192.002,342.066h-62.977
	c0,0-21.228-4.246-21.228-27.597V68.93L177.85,1h193.884c0,0,21.936,2.83,21.936,24.059v293.656c0,0-2.123,22.643-21.228,22.643
	h-57.316"/>
<polyline fill="none" stroke="#00826A" stroke-width="8" stroke-miterlimit="10" points="138.224,79.544 184.926,79.544 
	184.926,27.181 "/>
<polyline fill="none" stroke="#00826A" stroke-width="8" stroke-miterlimit="10" points="213.23,201.96 213.23,172.948 
	296.02,172.948 296.02,205.498 "/>
<polyline fill="none" stroke="#00826A" stroke-width="8" stroke-miterlimit="10" points="213.23,265.644 213.23,221.773 
	296.02,221.773 296.02,269.182 "/>
<polygon fill="none" stroke="#00826A" stroke-width="8" stroke-miterlimit="10" points="346.968,385.23 257.102,498.446 
	163.698,384.522 213.23,384.522 213.23,281.212 296.02,281.212 296.02,383.814 "/>
</svg>
