<?xml version="1.0" encoding="utf-8"?>
<!-- Generator: Adobe Illustrator 17.0.0, SVG Export Plug-In . SVG Version: 6.00 Build 0)  -->
<!DOCTYPE svg PUBLIC "-//W3C//DTD SVG 1.1//EN" "http://www.w3.org/Graphics/SVG/1.1/DTD/svg11.dtd">
<svg version="1.1" id="Layer_1" xmlns="http://www.w3.org/2000/svg" xmlns:xlink="http://www.w3.org/1999/xlink" x="0px" y="0px"
	 width="500px" height="500px" viewBox="0 0 510 510" enable-background="new 0 0 500 500" xml:space="preserve">
<path fill="none" stroke="#00826A" stroke-width="8" stroke-miterlimit="10" d="M110.174,37.426c0,0,34.98,21.458,80.836,10.876"/>
<path fill="none" stroke="#00826A" stroke-width="8" stroke-miterlimit="10" d="M389.132,37.426c0,0-31.159,16.314-91.124-2.205
	c0,0-62.611-26.455-94.357,2.205l-54.674,48.502c0,0-17.637,18.96-0.441,28.219c0,0,20.723,8.818,47.62-7.055l21.605-14.55
	c0,0,22.487-14.55,37.919-3.527c0,0,88.625,51.588,143.3,105.381l2.646,1.764c0,0,11.007-18.208,34.376-27.908"/>
<path fill="none" stroke="#00826A" stroke-width="8" stroke-miterlimit="10" d="M64.318,168.821c0,0,29.542,33.069,36.597,45.856
	l1.911,2.205"/>
<path fill="none" stroke="#00826A" stroke-width="8" stroke-miterlimit="10" d="M220.405,306.83l34.392,22.487
	c0,0,19.842,11.905,34.392-14.991c0,0,4.409-7.055,0-15.873c0,0,19.401,17.196,42.77,12.787c0,0,20.723-10.582,16.314-29.983
	c0,0,23.369,12.346,36.597-6.614c0,0,11.905-14.11,0.441-26.896c0,0,27.778,14.55,37.038-17.196c0,0,7.937-14.11-20.723-34.392"/>
<line fill="none" stroke="#00826A" stroke-width="8" stroke-miterlimit="10" x1="385.31" y1="247.746" x2="317.849" y2="209.827"/>
<line fill="none" stroke="#00826A" stroke-width="8" stroke-miterlimit="10" x1="348.273" y1="281.256" x2="283.457" y2="244.659"/>
<line fill="none" stroke="#00826A" stroke-width="8" stroke-miterlimit="10" x1="289.189" y1="298.452" x2="247.301" y2="274.201"/>
<path fill="none" stroke="#00826A" stroke-width="8" stroke-miterlimit="10" d="M222.855,280.166
	c-6.064-5.763-15.432-5.891-21.641-0.549c4.974-8.142,3.788-18.921-3.407-25.76c-8.281-7.871-21.374-7.538-29.245,0.743
	l-0.705,0.884c4.464-7.711,3.27-17.743-3.472-24.151c-7.893-7.502-20.374-7.185-27.876,0.708l-1.958,2.455
	c4.058-7.028,2.967-16.163-3.175-22c-7.196-6.839-18.574-6.55-25.413,0.646l-8.803,11.033c-6.839,7.196-6.55,18.574,0.646,25.413
	c7.196,6.839,18.574,6.55,25.413-0.646l0.903-1.132c-4.505,7.719-3.32,17.786,3.439,24.21c7.893,7.502,20.374,7.185,27.876-0.708
	l0.119-0.149c-4.712,8.095-3.466,18.645,3.619,25.379c8.281,7.871,21.374,7.538,29.245-0.743l0.908-1.138
	c-3.032,6.169-1.873,13.839,3.372,18.824c6.464,6.144,16.685,5.884,22.828-0.58l7.907-9.911
	C229.579,296.531,229.319,286.31,222.855,280.166z"/>
<line fill="none" stroke="#00826A" stroke-width="8" stroke-miterlimit="10" x1="123.218" y1="248.942" x2="134.866" y2="233.636"/>
<line fill="none" stroke="#00826A" stroke-width="8" stroke-miterlimit="10" x1="154.708" y1="272.217" x2="169.258" y2="253.698"/>
<line fill="none" stroke="#00826A" stroke-width="8" stroke-miterlimit="10" x1="187.777" y1="296.909" x2="201.886" y2="278.831"/>
<g>
	<path fill="none" stroke="#00826A" stroke-width="8" stroke-miterlimit="10" d="M498.145,148.059
		c3.011,8.361-2.18,17.887-11.595,21.277l-27.275,9.822c-9.415,3.39-19.487-0.639-22.498-9L387.622,33.661
		c-3.011-8.361,2.18-17.887,11.595-21.277l27.275-9.822c9.415-3.39,19.487,0.639,22.498,9L498.145,148.059z"/>
	<circle fill="none" stroke="#00826A" stroke-width="8" stroke-miterlimit="10" cx="463.31" cy="145.452" r="13.963"/>
</g>
<g>
	<path fill="none" stroke="#00826A" stroke-width="8" stroke-miterlimit="10" d="M63.367,170.075
		c-2.905,8.398-12.927,12.554-22.383,9.282l-27.396-9.478C4.131,166.608-1.18,157.148,1.725,148.75L49.158,11.644
		c2.905-8.398,12.927-12.554,22.383-9.282l27.396,9.478c9.457,3.272,14.767,12.732,11.862,21.129L63.367,170.075z"/>
	<circle fill="none" stroke="#00826A" stroke-width="8" stroke-miterlimit="10" cx="37.889" cy="146.177" r="13.963"/>
</g>
</svg>
