<?xml version="1.0" encoding="utf-8"?>
<!-- Generator: Adobe Illustrator 17.0.0, SVG Export Plug-In . SVG Version: 6.00 Build 0)  -->
<!DOCTYPE svg PUBLIC "-//W3C//DTD SVG 1.1//EN" "http://www.w3.org/Graphics/SVG/1.1/DTD/svg11.dtd">
<svg version="1.1" id="Layer_1" xmlns="http://www.w3.org/2000/svg" xmlns:xlink="http://www.w3.org/1999/xlink" x="0px" y="0px"
	 width="500px" height="500px" viewBox="0 0 510 510" enable-background="new 0 0 500 500" xml:space="preserve">
<g>
	<path fill="none" stroke="#00826A" stroke-width="8" stroke-miterlimit="10" d="M352.655,39.903h38.606
		c24.087,0,43.794,19.708,43.794,43.794v71.965l0,0"/>
	<path fill="none" stroke="#00826A" stroke-width="8" stroke-miterlimit="10" d="M352.655,39.903"/>
	<path fill="none" stroke="#00826A" stroke-width="8" stroke-miterlimit="10" d="M395.999,155.663V91.558
		c0-7.812-6.392-14.203-14.203-14.203h-54.214"/>
	<g>
		<path fill="none" stroke="#00826A" stroke-width="8" stroke-miterlimit="10" d="M156.833,39.903h-38.606
			c-24.087,0-43.794,19.708-43.794,43.794v371.708c0,24.087,19.708,43.794,43.794,43.794h101.528h32.621H391.26
			c24.087,0,43.794-19.708,43.794-43.794V83.697c0-24.087-19.708-43.794-43.794-43.794h-38.606"/>
		<path fill="none" stroke="#00826A" stroke-width="8" stroke-miterlimit="10" d="M181.368,77.353h-53.675
			c-7.812,0-14.203,6.392-14.203,14.203v355.089c0,7.811,6.392,14.203,14.203,14.203h105.745h18.938h129.418
			c7.812,0,14.203-6.392,14.203-14.203V91.558c0-7.812-6.392-14.203-14.203-14.203H328.12"/>
	</g>
	<polygon fill="none" stroke="#00826A" stroke-width="8" stroke-miterlimit="10" points="313.263,100.032 196.225,100.032 
		156.833,39.903 352.655,39.903 	"/>
	<path fill="none" stroke="#00826A" stroke-width="8" stroke-miterlimit="10" d="M263.522,77.117"/>
	<path fill="none" stroke="#00826A" stroke-width="8" stroke-miterlimit="10" d="M273.04,39.903V20.681
		c0-10.781-8.82-19.601-19.601-19.601l0,0c-10.781,0-19.601,8.82-19.601,19.601v19.222"/>
	<g>
		<polygon fill="none" stroke="#00826A" stroke-width="8" stroke-miterlimit="10" points="175.178,142.642 186.641,165.87 
			212.275,169.595 193.727,187.675 198.105,213.205 175.178,201.151 152.251,213.205 156.629,187.675 138.081,169.595 
			163.715,165.87 		"/>
		
			<line fill="none" stroke="#00826A" stroke-width="8" stroke-miterlimit="10" x1="244.585" y1="162.596" x2="299.979" y2="162.596"/>
		
			<line fill="none" stroke="#00826A" stroke-width="8" stroke-miterlimit="10" x1="244.585" y1="202.629" x2="263.76" y2="202.629"/>
		
			<line fill="none" stroke="#00826A" stroke-width="8" stroke-miterlimit="10" x1="281.987" y1="202.629" x2="339.039" y2="202.629"/>
		
			<line fill="none" stroke="#00826A" stroke-width="8" stroke-miterlimit="10" x1="320.933" y1="162.596" x2="365.675" y2="162.596"/>
	</g>
	<g>
		<polygon fill="none" stroke="#00826A" stroke-width="8" stroke-miterlimit="10" points="175.178,241.039 186.641,264.267 
			212.275,267.992 193.727,286.072 198.105,311.602 175.178,299.548 152.251,311.602 156.629,286.072 138.081,267.992 
			163.715,264.267 		"/>
		
			<line fill="none" stroke="#00826A" stroke-width="8" stroke-miterlimit="10" x1="244.585" y1="260.992" x2="299.979" y2="260.992"/>
		
			<line fill="none" stroke="#00826A" stroke-width="8" stroke-miterlimit="10" x1="244.585" y1="301.026" x2="263.76" y2="301.026"/>
		
			<line fill="none" stroke="#00826A" stroke-width="8" stroke-miterlimit="10" x1="281.987" y1="301.026" x2="339.039" y2="301.026"/>
		
			<line fill="none" stroke="#00826A" stroke-width="8" stroke-miterlimit="10" x1="320.933" y1="260.992" x2="365.675" y2="260.992"/>
	</g>
	<g>
		<polygon fill="none" stroke="#00826A" stroke-width="8" stroke-miterlimit="10" points="175.178,339.436 186.641,362.664 
			212.275,366.389 193.727,384.469 198.105,409.998 175.178,397.945 152.251,409.998 156.629,384.469 138.081,366.389 
			163.715,362.664 		"/>
		<line fill="none" stroke="#00826A" stroke-width="8" stroke-miterlimit="10" x1="244.585" y1="359.39" x2="299.979" y2="359.39"/>
		
			<line fill="none" stroke="#00826A" stroke-width="8" stroke-miterlimit="10" x1="244.585" y1="399.423" x2="263.76" y2="399.423"/>
		
			<line fill="none" stroke="#00826A" stroke-width="8" stroke-miterlimit="10" x1="281.987" y1="399.423" x2="339.039" y2="399.423"/>
		<line fill="none" stroke="#00826A" stroke-width="8" stroke-miterlimit="10" x1="320.933" y1="359.39" x2="365.675" y2="359.39"/>
	</g>
</g>
</svg>
